<svg xmlns="http://www.w3.org/2000/svg" version="1.1" xmlns:xlink="http://www.w3.org/1999/xlink" xmlns:svgjs="http://svgjs.com/svgjs" width="1920" height="1080" preserveAspectRatio="none" viewBox="0 0 1920 1080"><g mask="url(&quot;#SvgjsMask1029&quot;)" fill="none"><rect width="1920" height="1080" x="0" y="0" fill="url(#SvgjsLinearGradient1030)"></rect><path d="M1920 0L1326.1599999999999 0L1920 400.11z" fill="rgba(255, 255, 255, .1)"></path><path d="M1326.1599999999999 0L1920 400.11L1920 555.8L1036.32 0z" fill="rgba(255, 255, 255, .075)"></path><path d="M1036.32 0L1920 555.8L1920 697.39L747.8199999999999 0z" fill="rgba(255, 255, 255, .05)"></path><path d="M747.8199999999999 0L1920 697.39L1920 900.62L688.2299999999999 0z" fill="rgba(255, 255, 255, .025)"></path><path d="M0 1080L30.61 1080L0 728.99z" fill="rgba(0, 0, 0, .1)"></path><path d="M0 728.99L30.61 1080L789.95 1080L0 665.11z" fill="rgba(0, 0, 0, .075)"></path><path d="M0 665.11L789.95 1080L1233.46 1080L0 646.08z" fill="rgba(0, 0, 0, .05)"></path><path d="M0 646.08L1233.46 1080L1323.0900000000001 1080L0 411.69000000000005z" fill="rgba(0, 0, 0, .025)"></path></g><defs><mask id="SvgjsMask1029"><rect width="1920" height="1080" fill="#ffffff"></rect></mask><linearGradient x1="10.94%" y1="-19.44%" x2="89.06%" y2="119.44%" gradientUnits="userSpaceOnUse" id="SvgjsLinearGradient1030"><stop stop-color="rgba(91, 42, 134, 1)" offset="0"></stop><stop stop-color="rgba(165, 230, 186, 1)" offset="1"></stop></linearGradient></defs></svg>