<svg xmlns="http://www.w3.org/2000/svg" width="1920" height="1080" preserveAspectRatio="none"><g mask="url(&quot;#a&quot;)" fill="none"><path fill="url(#b)" d="M0 0h1920v1080H0z"/><path d="M1920 0h-593.84L1920 400.11z" fill="rgba(255, 255, 255, .1)"/><path d="M1326.16 0 1920 400.11V555.8L1036.32 0z" fill="rgba(255, 255, 255, .075)"/><path d="M1036.32 0 1920 555.8v141.59L747.82 0z" fill="rgba(255, 255, 255, .05)"/><path d="M747.82 0 1920 697.39v203.23L688.23 0z" fill="rgba(255, 255, 255, .025)"/><path d="M0 1080h30.61L0 728.99z" fill="rgba(0, 0, 0, .1)"/><path d="M0 728.99 30.61 1080h759.34L0 665.11z" fill="rgba(0, 0, 0, .075)"/><path d="M0 665.11 789.95 1080h443.51L0 646.08z" fill="rgba(0, 0, 0, .05)"/><path d="M0 646.08 1233.46 1080h89.63L0 411.69z" fill="rgba(0, 0, 0, .025)"/></g><defs><linearGradient x1="10.94%" y1="-19.44%" x2="89.06%" y2="119.44%" gradientUnits="userSpaceOnUse" id="b"><stop stop-color="rgba(91, 42, 134, 1)" offset="0"/><stop stop-color="rgba(165, 230, 186, 1)" offset="1"/></linearGradient><mask id="a"><path fill="#fff" d="M0 0h1920v1080H0z"/></mask></defs></svg>